<?xml version="1.0" encoding="utf-8"?>
<!-- Generator: Adobe Illustrator 19.2.0, SVG Export Plug-In . SVG Version: 6.00 Build 0)  -->
<svg version="1.1" id="Layer_1" xmlns="http://www.w3.org/2000/svg" xmlns:xlink="http://www.w3.org/1999/xlink" x="0px" y="0px"
	 viewBox="0 0 128 128" style="enable-background:new 0 0 128 128;" xml:space="preserve">
<style type="text/css">
	.st0{fill:#FFFFFF;}
</style>
<g transform="translate(0.000000,300.000000) scale(0.100000,-0.100000)">
	<path class="st0" d="M0,2825.9v-154.1h156.3h156.3v154.1V2980H156.3H0V2825.9z"/>
	<path class="st0" d="M483.7,2825.9v-154.1H640h156.3v154.1V2980H640H483.7V2825.9z"/>
	<path class="st0" d="M967.5,2825.9v-154.1h156.3H1280v154.1V2980h-156.3H967.5V2825.9z"/>
	<path class="st0" d="M0,2363.5v-154.1h156.3h156.3v154.1v154.1H156.3H0V2363.5z"/>
	<path class="st0" d="M483.7,2363.5v-154.1H640h156.3v154.1v154.1H640H483.7V2363.5z"/>
	<path class="st0" d="M967.5,2363.5v-154.1h156.3H1280v154.1v154.1h-156.3H967.5V2363.5z"/>
	<path class="st0" d="M0,1901.2v-154.1h156.3h156.3v154.1v154.1H156.3H0V1901.2z"/>
	<path class="st0" d="M483.7,1901.2v-154.1H640h156.3v154.1v154.1H640H483.7V1901.2z"/>
	<path class="st0" d="M967.5,1901.2v-154.1h156.3H1280v154.1v154.1h-156.3H967.5V1901.2z"/>
</g>
</svg>
