<svg id="Layer_1" xmlns="http://www.w3.org/2000/svg" viewBox="0 0 365.2 122.4" enable-background="new 0 0 365.2 122.4"><style>.st0{fill:#010101;} .st1{fill:url(#SVGID_1_);} .st2{fill:url(#SVGID_2_);} .st3{fill:url(#SVGID_3_);} .st4{fill:url(#SVGID_4_);} .st5{fill:#FFFFFF;}</style><g><path class="st0" d="M124.3 57.4L118 57c-2-.3-3.3-.8-4-1.5-.8-.7-1.2-1.4-1-2.3 0-1.4.4-2.6 1.4-3.4 1-1 2.7-1.3 5-1.3 2.2 0 4 .3 5.7 1l2.2 1c1.6 1 3.6.6 4.8-.8 1.6-2 1-4.6-1-5.8-.8-.6-1.8-1-2.7-1.5-1.2-.5-2.6-.8-4-1-1.4-.3-3-.4-4.8-.4-4 0-7.5 1-10.2 3.2-2.7 2-4 5-4.2 9.2 0 3.4 1.2 6 3.3 8 2 1.8 4.7 3 8 3.3l6.7.6c1.4 0 2.6.4 3.5 1 .8.6 1.3 1.6 1.3 3 0 1.6-.7 3-2 3.7-1.5 1-3.3 1.3-5.6 1.3-3.8 0-7-1-9.8-3-1.5-1-3.6-1-5 .4-1.5 1.7-1.3 4.4.6 5.7 4 3 8.6 4.3 13.5 4.3 4.6 0 8.4-1 11.4-3.3 3-2 4.4-5 4.5-9 0-3.2-.8-6-2.5-8-1.8-2.4-4.7-3.6-8.7-4zM211.2 46c-1-1.3-2.4-2.5-4.3-3.6-2-1-4.4-1.5-7.5-1.6-3 0-5.3.6-7.2 1.6-2 1-3.4 2.2-4.4 3.5-1.5 1.4-2.6 3.3-3.3 5.5-.7 2.2-1 5.5-1 9.6 0 4.3.3 7.5 1 9.7.7 2.2 1.8 4 3.2 5.7 1 1.2 2.4 2.4 4.3 3.4 2 1 4.3 1.7 7.2 1.7 3 0 5.5-.6 7.4-1.7 1-.5 1.7-1 2.4-1.6.7-.6 1.3-1 1.8-1.7 1.5-1.6 2.6-3.5 3.3-5.7.6-2.2 1-5.4 1-9.6 0-4.2-.4-7.4-1-9.6-.7-2.2-1.8-4-3.3-5.6zm-4 21.3c0 1.3-.7 2.5-1.4 3.5-.6.8-1.4 1.4-2.5 2-1 .6-2.3.8-3.7.8-1.3 0-2.5-.3-3.6-.8-1-.6-2-1.3-2.6-2-.7-1-1.2-2-1.4-3.5-.3-1.3-.4-3.3-.4-6 0-3 0-5 .4-6.2.3-1.2.8-2.3 1.4-3.2.7-1 1.5-1.6 2.6-2 1-.6 2.3-1 3.6-1 1.4 0 2.6.4 3.7 1 1 .4 2 1 2.5 2 .8 1 1.3 2 1.5 3.3.2 1.4.4 3.5.4 6.3 0 2.7-.2 4.7-.4 6zM251.8 46c-1-1.3-2.4-2.5-4.3-3.6-2-1-4.3-1.5-7.4-1.6-2.8 0-5.2.6-7 1.6l-2 1c-.6-1-1.6-1.5-3-1.5-2.4 0-4 2-4 4.3V95c0 2.5 1.5 4.5 4 4.5 2.4 0 4-2 4-4.4V79.4l1 .6c1.8 1 4.2 1.6 7 1.6 3 0 5.6-.6 7.5-1.7 1-.6 1.8-1 2.5-1.7.7-.6 1.3-1 1.8-1.7 1.5-1.6 2.6-3.5 3.3-5.7.7-2.3 1-5.5 1-9.7 0-4.2-.3-7.4-1-9.6-.6-2.3-1.7-4-3.2-5.7zm-4 21.3c0 1.3-.7 2.5-1.4 3.5-.6.8-1.4 1.4-2.5 2-1.2.6-2.4.8-3.8.8-1.3 0-2.5-.3-3.6-.8-1-.6-2-1.3-2.6-2-.7-1-1.2-2-1.4-3.5-.3-1.3-.4-3.3-.4-6 0-3 0-5 .4-6.2.3-1.2.8-2.3 1.4-3.2.7-1 1.5-1.6 2.6-2 1-.6 2.3-1 3.6-1 1.4 0 2.6.4 3.7 1 1 .4 2 1 2.4 2 .8 1 1.3 2 1.5 3.3 0 1.4.3 3.5.3 6.3 0 2.7-.2 4.7-.4 6zM291.4 43.8c-3-2-6.7-3-11.6-2.8-3.7 0-6.8.7-9.3 2.3-2.2 1.4-2.3 4.5-.3 6 1.3 1 3 1.2 4.4.3l1-.6c1.2-.4 2.7-.6 4.7-.6 5.3 0 8 1.6 8 5V55c0 1.6-1.4 3-3 3h-7.8c-4 0-7.2 1-9.3 3.3-2 2.3-3.2 5-3.2 8.4 0 3.5 1.2 6.4 3.7 8.6 2.3 2.3 5.6 3.5 10 3.5 2.5 0 4.6-.3 6-1 1.5-.6 2.6-1.6 3.3-3v.6c0 1.7 1.4 3 3 3h2c1.6 0 3-1.3 3-3V54c-.3-4.8-1.7-8.3-4.6-10.2zm-5.2 29c-1.3 1-3.6 1.3-7 1.3-2.5 0-4.3-.4-5.4-1.5-1.2-1-1.7-2-1.7-3.4 0-3 2.3-4.6 6.8-4.7h6.4c1.6 0 3 1.3 3 3 0 2.8-.7 4.7-2 5.6zM325.8 41.3c-1-.3-2-.4-3-.4-4.2 0-7.6 1.5-10 4.6h-.3v-.3c0-2-1.7-4-4-4s-3.8 1.8-3.8 4v32c0 2 1.7 4 4 4s3.8-1.8 3.8-4v-20c0-3 1-5 2.4-6.4 1.3-1.4 3-2 5-2 1 0 1.8 0 2.6.4 1.6.6 3.5.3 4.6-1l.6-1c1.8-2 .7-5.3-2-6zM361.5 40.8c-2 0-3.7 1.6-3.7 3.7v21c0 4.5-3.5 8-8 8s-7.8-3.5-7.8-8v-21c0-2-1.6-3.8-3.7-3.8s-3.7 1.6-3.7 3.7v21c0 8.5 6.8 15.3 15.2 15.3S365 74 365 65.5v-21c.2-2-1.5-3.7-3.5-3.7zM159.6 40.8c-3 0-5.7.8-8 2.3V28.7c0-2.3-1.3-4-3.6-4s-3.6 1.7-3.6 4V77.5c0 2.3 1.3 4 3.6 4s3.6-1.7 3.6-4V56c0-4.4 3.6-8 8-8s8 3.6 8 8v22c0 2 1.5 3.6 3.6 3.6 2 0 3.7-1.6 3.7-3.7V56c-.2-8.4-7-15.2-15.4-15.2z"/><g><g><linearGradient id="SVGID_1_" gradientUnits="userSpaceOnUse" x1="88.5" y1="101.5" x2="-7.5" y2="98.6"><stop offset="0" stop-color="#F3736C"/><stop offset="1" stop-color="#532E8B"/></linearGradient><path class="st1" d="M32 77.2l-32 32c17.7 17.7 46.3 17.7 64 0 5.8-5.8 9.7-12.8 11.7-20.3-15 4-32 0-43.7-11.8z"/><linearGradient id="SVGID_2_" gradientUnits="userSpaceOnUse" x1="81.2" y1="66.9" x2="-31.7" y2="73.4"><stop offset="0" stop-color="#F3736C"/><stop offset="1" stop-color="#532E8B"/></linearGradient><path class="st2" d="M64 45.2l-32 32C43.8 89 60.6 93 75.7 89c4-15.2 0-32-11.7-43.8z"/><linearGradient id="SVGID_3_" gradientUnits="userSpaceOnUse" x1="47.4" y1="-4.2" x2="69.2" y2="52"><stop offset="0" stop-color="#0779B3"/><stop offset=".2" stop-color="#308BAF"/><stop offset=".4" stop-color="#4EA2A6"/><stop offset=".6" stop-color="#61B49D"/><stop offset=".8" stop-color="#6DBF97"/><stop offset="1" stop-color="#70C495"/></linearGradient><path class="st3" d="M32 13.2C26.2 19 22.3 26 20.3 33.5c15-4 32 0 43.7 11.7l32-32c-17.7-17.6-46.4-17.6-64 0z"/><linearGradient id="SVGID_4_" gradientUnits="userSpaceOnUse" x1="41.4" y1="26" x2="41.4" y2="92.4"><stop offset="0" stop-color="#0779B3"/><stop offset=".2" stop-color="#308BAF"/><stop offset=".4" stop-color="#4EA2A6"/><stop offset=".6" stop-color="#61B49D"/><stop offset=".8" stop-color="#6DBF97"/><stop offset="1" stop-color="#70C495"/></linearGradient><path class="st4" d="M32 77.2l32-32C52 33.4 35.4 29.5 20.3 33.5c-4 15-.2 32 11.7 43.7z"/></g><g><ellipse transform="rotate(-45 37.104 50.27)" class="st5" cx="37.1" cy="50.3" rx="11.9" ry="11.9"/><ellipse transform="rotate(-45 37.104 50.27)" class="st0" cx="37.1" cy="50.3" rx="3.9" ry="3.9"/></g></g></g></svg>