<?xml version="1.0" encoding="utf-8"?>
<!-- Generator: Adobe Illustrator 17.0.0, SVG Export Plug-In . SVG Version: 6.00 Build 0)  -->
<!DOCTYPE svg PUBLIC "-//W3C//DTD SVG 1.1//EN" "http://www.w3.org/Graphics/SVG/1.1/DTD/svg11.dtd">
<svg version="1.1" id="Layer_1" xmlns="http://www.w3.org/2000/svg" xmlns:xlink="http://www.w3.org/1999/xlink" x="0px" y="0px"
	 width="12px" height="12px" viewBox="0 0 12 12" enable-background="new 0 0 12 12" xml:space="preserve">
<g>
	<path fill="#CFCECE" d="M11.505,3.965C11.363,3.823,11.195,3.752,11,3.752H0.954c-0.194,0-0.363,0.071-0.505,0.213
		C0.307,4.108,0.236,4.276,0.236,4.47c0,0.194,0.071,0.362,0.213,0.505l5.023,5.023c0.142,0.142,0.31,0.213,0.505,0.213
		c0.194,0,0.363-0.071,0.505-0.213l5.023-5.023c0.142-0.142,0.213-0.31,0.213-0.505C11.718,4.276,11.646,4.108,11.505,3.965
		L11.505,3.965z M11.505,3.965"/>
</g>
</svg>
