<?xml version="1.0" encoding="utf-8"?>
<!-- Generator: Adobe Illustrator 17.0.0, SVG Export Plug-In . SVG Version: 6.00 Build 0)  -->
<!DOCTYPE svg PUBLIC "-//W3C//DTD SVG 1.1//EN" "http://www.w3.org/Graphics/SVG/1.1/DTD/svg11.dtd">
<svg version="1.1" id="Layer_1" xmlns="http://www.w3.org/2000/svg" xmlns:xlink="http://www.w3.org/1999/xlink" x="0px" y="0px"
	 width="12px" height="12px" viewBox="0 0 12 12" enable-background="new 0 0 12 12" xml:space="preserve">
<g>
	<path fill="#CECECE" d="M8.875,5.61L4.329,1.065C4.2,0.937,4.048,0.872,3.873,0.872c-0.176,0-0.328,0.064-0.457,0.193
		S3.223,1.346,3.223,1.522v9.091c0,0.176,0.064,0.328,0.193,0.457c0.129,0.128,0.281,0.193,0.457,0.193
		c0.176,0,0.328-0.064,0.457-0.193l4.546-4.546c0.128-0.128,0.193-0.281,0.193-0.457C9.068,5.891,9.003,5.739,8.875,5.61L8.875,5.61
		z M8.875,5.61"/>
</g>
</svg>
