<?xml version="1.0" standalone="no"?>
<!DOCTYPE svg PUBLIC "-//W3C//DTD SVG 1.1//EN" "http://www.w3.org/Graphics/SVG/1.1/DTD/svg11.dtd">
<svg xmlns="http://www.w3.org/2000/svg">
<metadata>Copyright (C) 2018 by original authors @ fontello.com</metadata>
<defs>
<font id="shoparu" horiz-adv-x="1000" >
<font-face font-family="shoparu" font-weight="400" font-stretch="normal" units-per-em="1000" ascent="850" descent="-150" />
<missing-glyph horiz-adv-x="1000" />
<glyph glyph-name="100percent-buyers-protection" unicode="&#xe800;" d="M461 834c-98-53-222-74-316-53-64 14-59 14-69 6l-9-6-1-204c-1-220 0-237 16-302 49-191 194-350 379-415 16-5 35-10 41-10s24 5 40 10c185 65 330 224 379 415 17 65 17 82 16 302l-1 204-9 6c-10 8-7 8-71-6-34-9-128-9-166 0-46 10-89 25-136 47-29 14-48 22-55 21-6 0-23-7-38-15z" horiz-adv-x="1000" />

<glyph glyph-name="bag" unicode="&#xe801;" d="M444 846c-82-14-147-62-166-122-6-19-6-31-6-107 0-79 0-86 6-91 3-4 10-6 14-6 17 0 18 4 20 101 1 86 2 91 9 105 25 47 82 79 154 83 80 5 155-31 182-86 9-18 9-18 11-108l2-90 9-3c6-2 11-2 17 1l9 4-1 95-1 96-10 22c-37 77-146 124-249 106z m-360-249c-5-6-6-36-6-370 0-359 0-364 7-370s11-7 410-7 403 0 410 7 6 11 6 371c0 348 0 364-6 369-5 5-16 6-81 6-68 0-75-1-80-6-8-9-7-22 1-29 6-4 19-5 67-5h59v-336-337h-376-377v337 336h56c62 0 71 3 71 20 0 19-5 20-84 20-65 0-72-1-77-6z m249-1c-7-10-6-18 2-26 6-7 11-7 147-7 156 0 156 0 156 20 0 20 4 20-155 20h-145l-5-7z m-88-93c-6-7-4-31 4-43 26-39 85-26 91 20 3 16-5 27-19 27-10 0-16-6-19-19s-18-13-22 0c-2 6-5 12-6 15-4 5-23 5-29 0z m394-5c-15-23 15-61 47-61 33 0 62 38 47 61-9 14-35 8-35-9 0-3-2-7-5-9-7-6-16-1-18 8-3 19-26 25-36 10z" horiz-adv-x="1000" />

<glyph glyph-name="category-9-box" unicode="&#xe802;" d="M0 714v-120h122 122v120 120h-122-122v-120z m378 0v-120h122 122v120 120h-122-122v-120z m378 0v-120h122 122v120 120h-122-122v-120z m-756-361v-121h122 122v121 120h-122-122v-120z m378 0v-121h122 122v121 120h-122-122v-120z m378 0v-121h122 122v121 120h-122-122v-120z m-756-361v-121h122 122v121 120h-122-122v-120z m378 0v-121h122 122v121 120h-122-122v-120z m378 0v-121h122 122v121 120h-122-122v-120z" horiz-adv-x="1000" />

<glyph glyph-name="authentic_products_services" unicode="&#xe803;" d="M471 837c-17-7-26-13-42-32-15-18-24-24-36-25-2 0-15 4-27 9s-26 10-32 10c-25 4-51-5-69-23-12-12-17-23-24-48-11-37-13-39-54-43-23-2-29-3-39-8-23-11-37-27-44-51-5-14-5-30 0-55 6-32 2-40-28-57-22-12-37-26-45-43-6-11-7-15-7-31-2-25 2-36 18-58 25-36 25-41 5-71-8-11-15-25-18-31-8-23-7-45 4-67 10-20 18-26 52-46 25-14 28-23 22-56-7-34 0-61 20-83 17-18 38-26 67-26 21 0 30-3 39-12 6-5 8-10 13-30 8-26 16-41 32-54 15-12 29-17 51-17 18 0 19 1 42 10 13 6 26 10 30 10 11 0 20-6 35-22 25-29 40-37 69-37 30 0 46 8 71 37 24 27 30 29 62 16 12-5 27-10 33-11 33-4 67 13 83 42 3 5 8 19 11 31 10 36 13 38 52 42 29 2 42 6 57 17 19 15 31 41 31 65 0 6-1 21-3 32-6 32-2 40 28 57 22 12 37 27 45 43 5 11 6 15 7 31 1 25-2 35-18 58-25 36-26 41-6 70 21 31 28 52 23 76-6 29-21 47-55 66-30 16-33 23-27 57 5 27 3 45-5 63-10 21-27 36-49 44-4 1-19 3-33 4-37 2-42 5-52 39-3 12-8 25-11 30-14 28-47 46-78 44-10-1-19-4-36-11-36-15-40-14-67 15-16 17-23 22-33 27-11 6-14 7-33 7-18 1-22 0-31-4z m44-48c3-1 13-11 23-22 15-16 20-20 32-26 12-6 17-7 30-8 18-1 25 1 56 14 18 7 24 8 35 3 11-5 15-11 22-36 8-26 13-36 25-49 17-17 39-25 72-25 32 0 47-15 42-43-7-43-7-55 4-77 9-18 20-27 46-42 24-13 29-19 30-32 1-13 0-16-15-38-16-24-21-39-21-58 0-19 5-35 19-54 20-28 23-37 15-53-3-9-11-15-34-27-13-7-31-24-37-35-10-21-11-38-5-70 4-24 3-32-6-42-7-8-14-11-36-12-34-2-50-8-67-24-13-12-19-23-26-49-7-24-10-31-19-37-10-7-21-6-48 4-27 11-42 13-61 8-18-5-32-15-50-36-8-9-17-19-20-20-8-4-25-4-32 1-3 2-11 10-18 19-26 29-45 38-75 36-14 0-19-2-38-10-26-11-36-12-47-5-9 7-12 12-19 35-10 33-19 47-38 59-15 10-24 12-52 14-30 2-37 4-44 16-6 10-6 16-2 41 3 21 4 27 2 38-4 29-21 50-52 67-27 14-33 21-33 38 0 8 2 11 16 33 17 27 21 37 21 58 0 21-5 34-22 58-16 22-18 27-16 39 1 12 8 20 34 35 17 10 24 15 31 24 18 22 22 44 15 82-5 25-4 32 6 43 7 8 13 10 41 12 33 3 48 9 65 27 12 13 15 20 23 49 6 20 8 24 14 30 7 7 19 11 27 9 3-1 14-5 24-9 25-10 38-13 55-10 24 5 36 13 62 43 17 18 30 22 46 14z m-44-151c-96-10-183-72-226-160-13-26-20-45-26-73-6-26-6-87-1-114 24-120 114-211 233-234 28-5 72-5 100 0 61 10 110 37 155 81 43 44 67 88 81 150 6 25 6 86 1 113-31 151-166 253-317 237z m77-53c105-20 186-111 194-219 8-96-39-184-122-232-59-34-132-41-197-18-79 29-138 98-156 182-6 28-6 68 0 95 18 87 77 155 158 183 15 6 37 10 56 13 12 1 51-1 67-4z m34-153c-3-2-31-28-61-58l-54-55-21 20c-11 11-22 21-25 21-9 3-18 0-25-8-4-5-6-8-6-15 0-5 2-11 3-14 8-11 60-62 66-64 13-4 15-3 78 60 33 32 64 64 69 70 8 10 9 12 9 20 0 11-5 19-14 23-8 3-12 3-19 0z" horiz-adv-x="1000" />

<glyph glyph-name="down-arrow" unicode="&#xe804;" d="M9 553c-9-9-11-14-11-24 0-13 6-19 241-255 257-257 250-251 273-242 5 3 117 112 249 244 233 234 239 240 239 253 0 10-2 15-11 24-13 13-29 15-42 6-5-3-108-105-228-225l-220-219-219 219c-121 120-224 222-229 225-13 9-29 7-42-6z" horiz-adv-x="1000" />

<glyph glyph-name="free-returns" unicode="&#xe805;" d="M784 835l-9-8 1-47c0-27 1-55 3-63 1-11 1-14-3-11-3 1-17 11-33 21-50 34-97 53-160 67-45 9-132 10-175 2-185-38-328-181-362-363-11-60-4-180 11-197 9-10 19-13 31-8 17 6 19 16 12 56-37 217 110 423 327 458 79 13 166 0 239-34 28-13 75-44 72-47-1-1-28-3-59-4-31-1-60-3-64-4-12-4-19-20-14-33 6-19 11-20 95-18 110 3 123 5 133 15l8 8-2 67c-4 120-6 135-14 143-10 10-25 10-37 0z m119-371c-15-7-17-17-10-56 37-218-109-422-328-458-46-7-117-4-160 7-54 14-101 35-142 65-18 14-17 14 51 20 30 2 57 6 62 8 19 10 19 35 2 46-8 6-15 5-107-3-103-9-112-11-116-26-2-10 15-197 19-204 8-15 28-17 42-5 10 9 10 9 4 79-2 25-3 46-3 47 1 1 14-7 29-17 51-34 101-55 164-68 44-10 131-11 175-2 87 17 166 58 228 118 82 77 130 178 139 287 3 41 0 98-7 130-6 29-22 40-42 32z" horiz-adv-x="1000" />

<glyph glyph-name="category-16-box" unicode="&#xe806;" d="M23 726v-85h87 86v85 85h-86-87v-85z m263 0v-85h87 86v85 85h-86-87v-85z m263 0v-85h86 87v85 85h-87-86v-85z m263 0v-85h86 87v85 85h-87-86v-85z m-789-259v-85h87 86v85 84h-86-87v-84z m263 0v-85h87 86v85 84h-86-87v-84z m263 0v-85h86 87v85 84h-87-86v-84z m263 0v-85h86 87v85 84h-87-86v-84z m-789-252v-86l86 0 86 1v85 85l-86 1-86 1v-87z m263 0v-86l86 0 86 1v85 85l-86 1-86 1v-87z m265 82c-1-2-2-40-1-85l1-82 85-1 86 0v86 87h-85c-66 0-86-1-86-5z m262 0c-1-2-1-40-1-85l1-82 86-1 86 0v86 87h-85c-66 0-86-1-87-5z m-790-334v-84h87 86v84 85h-86-87v-85z m263 0v-84h87 86v84 85h-86-87v-85z m263 0v-84h86 87v84 85h-87-86v-85z m263 0v-84h86 87v84 85h-87-86v-85z" horiz-adv-x="1000" />

<glyph glyph-name="calendar" unicode="&#xe807;" d="M951 787h-117v50c0 9-7 16-17 16h-117c-9 0-16-8-16-16v-50h-368v50c0 9-8 16-17 16h-117c-9 0-16-8-16-16v-50h-118c-9 0-17-8-17-17v-904c0-9 8-16 17-16h903c9 0 16 8 16 16v904c1 9-7 17-16 17l0 0z m-234 33h84v-100h-84v100z m-519 0h84v-100h-84v100z m-133-67h100v-50c0-9 8-16 16-16h117c10 0 17 8 17 16v50h368v-50c0-9 8-16 16-16h117c10 0 17 8 17 16v50h100v-151h-868v151z m0-869v685h869v-686h-869z m569 585h-452v-485h635v485h-183z m-118-34h118v-117h-118l0 117 0 0z m118-267h-118v117h118l0-117 0 0z m-268 117h117v-117h-117v117z m0 150h117v-117h-117v117z m-151 0h117v-117h-117v117z m0-150h117v-117h-117v117z m117-268h-117v117h117v-117z m151 0h-117v117h117v-117z m151 0h-118v117h118l0-117 0 0z m150 0h-118v117h118v-117z m0 151h-118v117h118v-117z m0 267v-117h-118v117h118z" horiz-adv-x="1000" />

<glyph glyph-name="right-arrow-full" unicode="&#xe808;" d="M176 822l-7-6-1-463c-1-506-2-483 17-488 5-1 11-1 15 1 4 2 158 108 343 235l335 231v15 14l-316 217c-387 267-362 251-371 251-4 0-10-3-15-7z" horiz-adv-x="1000" />

<glyph glyph-name="left-arrow-full" unicode="&#xe809;" d="M467 598l-344-237v-15-14l341-235c187-129 344-236 348-237 11-3 24 5 27 15 4 14 3 931 0 943-4 10-12 16-22 16-4 0-161-106-350-236z" horiz-adv-x="1000" />

<glyph glyph-name="left-arrow" unicode="&#xe80a;" d="M473 615c-251-250-245-244-236-266 3-4 109-114 238-242 227-228 233-234 246-234 9 0 14 3 23 11 13 13 15 28 6 41-3 5-102 105-219 223l-214 214 214 214c117 117 216 217 219 222 9 13 7 28-6 41-9 9-14 11-23 11-13 0-19-5-248-235z" horiz-adv-x="1000" />

<glyph glyph-name="right-arrow" unicode="&#xe80b;" d="M253 823c-13-13-15-27-6-41 3-4 101-103 217-219l211-213-211-211c-116-117-214-216-217-221-9-13-7-28 6-40 9-9 13-11 23-11 12 0 18 5 245 233 249 248 243 241 234 263-2 5-108 113-235 240-226 225-232 231-244 231-10 0-14-2-23-11z" horiz-adv-x="1000" />

<glyph glyph-name="down-arrow-full" unicode="&#xe80c;" d="M30 703c-11-5-16-17-11-28 2-4 108-159 235-344l232-337h15 14l234 339c128 185 234 341 235 345 3 11-5 24-15 27-5 1-215 2-468 3-387 0-462-1-471-5z" horiz-adv-x="1000" />

<glyph glyph-name="call" unicode="&#xe80d;" d="M542 823c-7-3-14-15-14-23 0-9 7-21 16-24 4-2 20-6 35-10 84-19 157-60 221-124 65-64 104-135 125-225 8-34 16-46 32-46 10 0 28 16 28 25 0 29-27 108-52 158-69 132-194 230-339 266-35 8-42 8-52 3z m-358-55c-24-6-34-14-86-67-53-54-65-71-72-110-5-24-2-73 5-102 18-78 65-174 123-255 98-136 218-239 359-309 98-49 180-68 237-56 38 8 55 19 108 73 59 60 67 74 67 109 0 36-6 44-87 125-73 74-84 82-113 86-17 3-46-5-63-17-8-5-29-24-47-43l-34-34-21 11c-72 37-187 151-225 224l-11 22 39 39c45 47 55 63 55 95 0 35-9 48-88 127-75 74-86 82-117 85-8 1-21 0-29-3z m34-53c10-4 134-126 141-139 12-22 5-35-50-88-45-43-48-50-39-78 26-73 132-193 227-257 11-8 32-20 47-28 28-15 42-18 56-11 3 2 26 22 48 45 47 45 60 54 76 47 12-6 136-127 143-141 10-20 6-29-39-75-51-52-64-62-90-67-65-12-184 31-299 108-47 31-81 60-129 106-74 73-134 154-177 240-52 104-67 183-44 230 10 20 96 106 108 109 4 0 9 1 10 1 1 1 6-1 11-2z m318-65c-10-6-15-13-15-25 0-17 10-24 39-31 31-6 77-29 102-50 43-34 78-89 90-141 6-29 15-39 31-39 13 0 23 8 26 20 3 10-5 45-16 73-21 52-62 105-107 138-28 21-75 43-109 52-30 8-32 8-41 3z" horiz-adv-x="1000" />

<glyph glyph-name="wallet" unicode="&#xe80e;" d="M432 752c-195-50-359-93-366-94-19-6-33-17-42-36l-9-18v-338c0-245 1-343 3-352 5-17 20-33 37-41 14-7 14-7 426-7 392 0 412 0 425 6 7 3 18 11 24 17 18 18 20 32 20 132v89h16c28 0 26-8 26 156 0 163 2 152-29 156l-16 2v90c0 88-1 90-8 106-4 9-11 19-14 22-11 10-35 19-51 19h-15v64c0 64-1 65-9 82-10 21-28 34-49 35-12 1-98-20-369-90z m378 44c8-8 8-10 9-72l1-63-285 0h-284l272 72c150 39 274 71 276 71s6-4 11-8z m78-179c5-3 11-8 13-11 2-4 3-40 3-94v-88l-116-2c-111-1-118-1-138-8-54-19-91-60-103-114-17-75 24-151 96-181 18-7 21-7 142-8l123-1v-89c0-63-2-92-4-98-9-19 13-18-423-18-304 0-403 1-409 4-19 8-18-7-18 354 0 309 0 334 5 343 3 5 10 11 14 12 5 2 168 4 407 4 349 0 400-1 408-5z m62-354v-114l-139 1-140 1-18 9c-26 12-43 29-56 54-9 19-11 25-11 49 0 24 2 31 9 47 15 31 45 56 77 64 7 2 72 3 145 3l133 1v-115z m-261 18c-14-6-17-23-6-34 8-9 38-9 46-1 7 8 7 25 1 30-6 5-33 8-41 5z" horiz-adv-x="1000" />

<glyph glyph-name="user" unicode="&#xe80f;" d="M446 833c-113-33-190-148-190-285 0-139 80-256 197-286 23-6 73-7 98-1 25 5 67 25 92 44 24 18 54 54 71 86 44 79 51 185 18 275-30 84-98 149-174 168-28 8-86 7-112-1z m112-51c136-49 186-254 97-389-31-46-73-75-124-85-25-5-29-5-54 0-15 3-37 10-48 16-56 28-100 91-115 165-7 30-7 88 0 118 28 135 138 214 244 175z m-243-528c-128-46-213-129-238-232-6-24-7-39-7-100v-72h434 434v68c0 65-1 71-9 97-32 105-115 186-240 234-16 6-32 11-35 11-3 0-15-8-26-19-37-34-77-50-124-50-48 0-88 16-128 54-13 12-24 22-25 22 0 0-16-6-36-13z m77-84c8-4 27-13 41-18 24-8 31-9 71-9 40 0 47 1 71 10 30 10 49 20 74 39 20 15 18 15 62-7 56-28 100-63 129-105 33-47 45-83 45-143v-41h-381-381l1 56c1 46 3 59 9 77 25 72 90 135 176 170l27 11 20-15c11-9 27-20 36-25z" horiz-adv-x="1000" />

<glyph glyph-name="secure-payments" unicode="&#xe810;" d="M450 846c-121-23-212-107-234-215-4-15-5-44-5-88 0-63-1-66-7-66-3 0-17-6-29-12-28-14-51-37-64-65l-9-19v-217-217l11-23c14-28 43-55 70-67l19-7h304 304l20 7c27 11 56 39 70 67l11 23v217 217l-9 19c-13 28-36 51-64 65-13 6-26 12-30 12-6 0-6 3-6 66 0 71-3 95-18 131-18 45-54 90-94 119-27 19-70 39-103 48-35 9-104 12-137 5z m133-43c49-15 79-33 114-67 25-25 33-35 45-59 19-40 23-63 23-136v-61h-259-259v61c0 73 5 96 24 136 19 39 62 82 102 103 28 14 64 26 93 31 30 5 84 1 117-8z m233-367c18-8 42-31 51-48 7-13 7-14 7-224v-210l-7-14c-10-19-28-36-48-46l-15-7h-298-297l-16 7c-19 10-37 27-47 46l-7 14v210c0 210 0 211 7 224 13 25 39 45 66 52 6 2 141 2 301 2 272 0 291-1 303-6z m-340-111c-17-8-34-27-40-46-7-24-7-131 0-155 21-69 121-68 141 1 4 14 5 32 4 84-1 63-1 67-10 82-4 9-14 20-22 26-13 9-18 11-39 12-15 0-27-1-34-4z m55-42c13-12 15-25 13-94-1-46-2-56-7-64-14-21-47-21-61 0-5 8-7 18-7 64-2 69 0 82 13 94 8 8 13 10 24 10 11 0 17-2 25-10z" horiz-adv-x="1000" />

<glyph glyph-name="search" unicode="&#xe811;" d="M382 850c-5-1-19-3-32-5-147-24-279-137-329-283-17-50-21-78-21-138 0-74 12-129 42-188 32-64 91-130 149-168 149-98 348-93 486 12 12 9 23 17 26 19 2 1 46-40 130-124 114-114 127-125 137-125 15 0 30 15 30 30 0 10-11 22-126 137-117 118-125 127-121 133 3 3 12 16 21 28 33 45 58 104 71 166 8 39 8 121 0 160-19 90-55 158-119 221-61 62-126 98-210 117-27 6-114 11-134 8z m92-62c87-12 171-57 227-123 81-94 110-216 79-336-9-34-38-94-61-123-136-180-394-199-553-40-113 112-140 285-67 427 71 137 223 216 375 195z" horiz-adv-x="1000" />

<glyph glyph-name="love" unicode="&#xe812;" d="M693 792c-55-7-114-33-165-75l-24-19-15 12c-67 55-129 80-201 80-40 0-69-7-107-25-93-44-150-147-150-267 0-87 46-190 128-293 68-84 168-179 272-258 45-33 68-49 73-49 8 0 77 50 135 98 137 113 239 229 292 334 34 66 48 123 45 185-4 89-30 153-85 208-32 32-63 50-102 61-23 6-74 10-96 8z m84-35c74-19 134-81 158-163 4-16 9-45 11-66 3-31 3-41-1-68-10-61-33-114-78-182-16-22-41-56-56-74-38-46-113-120-168-167-56-47-132-104-139-104-7 0-87 61-143 109-93 79-168 160-219 237-46 67-68 119-78 181-10 60 3 133 34 188 18 34 59 74 91 90 94 46 200 25 294-61l21-20 20 19c52 48 111 78 169 86 23 3 60 1 84-5z" horiz-adv-x="1000" />

<glyph glyph-name="van" unicode="&#xe813;" d="M677 162h-346c-9 0-16 7-16 15s7 16 16 16h347c9 0 16-7 16-16s-8-15-17-15z m-429-82c-54 0-98 43-98 97s44 98 98 98 97-44 97-98-43-97-97-97z m0 165c-38 0-67-31-67-68s30-67 67-67 67 31 67 67-31 68-67 68z m512-165c-54 0-97 43-97 97s43 98 97 98 98-44 98-98-44-97-98-97z m0 165c-37 0-67-31-67-68s30-67 67-67 67 31 67 67-29 68-67 68z m-83-83h-346c-9 0-16 7-16 15s7 16 16 16h347c9 0 16-7 16-16s-8-15-17-15z m227 0h-61c-9 0-16 7-16 15s7 16 16 16h61c23 0 42 19 42 42v59c0 22-8 43-24 58l-69 68c-1 2-2 3-3 5l-56 122c-11 24-36 41-63 41h-629c-26 0-48-22-48-49v-303c0-23 19-42 42-42h68c9 0 16-7 16-16s-7-15-16-15h-68c-40 0-73 32-73 72v303c0 44 36 79 79 79h629c39 0 75-22 91-58l55-118 66-67c21-21 34-50 34-79v-59c0-41-33-74-73-74z m-224 210h-440c-9 0-16 7-16 16s7 15 16 15h440c8 0 15-7 15-15s-7-16-15-16z" horiz-adv-x="1000" />

<glyph glyph-name="edit" unicode="&#xe814;" d="M915 759c-81 82-214 82-296 0l-542-542c-4-4-7-9-8-15l-40-297c-2-9 2-18 8-23 4-5 12-8 19-8 2 0 3 0 4 0l180 24c15 3 26 16 23 31s-15 26-30 23l-144-19 28 208 219-219c5-5 12-8 20-8 7 0 14 3 19 8l542 542c40 40 62 92 62 148-2 56-24 108-64 147l0 0z m-285-66l91-91-495-495-91 91 495 495z m-276-713l-89 89 495 495 89-89-495-495z m533 533l-218 218c27 23 62 35 98 35 42 0 81-16 110-45s45-68 45-109c0-37-13-71-35-99l0 0z" horiz-adv-x="1000" />

<glyph glyph-name="cart" unicode="&#xe815;" d="M363 116c-53 0-95-42-95-94s42-95 95-95 94 42 94 95c0 51-43 94-94 94l0 0z m0-151c-32 0-57 26-57 56 0 31 26 56 57 56 31 0 56-25 56-56 0-30-25-56-56-56l0 0z m396 151c-53 0-95-43-95-94 0-53 42-95 95-95s94 42 94 95c0 51-42 94-94 94l0 0z m0-151c-32 0-57 26-57 56 0 31 26 56 57 56 31 0 56-25 56-56 0-30-25-56-56-56l0 0z m241 616c-4 4-9 7-15 7h-816l-53 175c-2 8-9 14-18 14h-75c-10 0-19-9-19-19s9-19 19-19h61l53-175 113-397c2-8 9-14 18-14h604c9 0 16 6 18 14l113 396c2 7 1 13-3 18l0 0z m-142-390h-576l-102 359h780l-102-359z" horiz-adv-x="1000" />

<glyph glyph-name="my-orders" unicode="&#xe816;" d="M302 264h582l104 367h-152l-55 168-226-73 31-95h-11l-56 168-228-73 32-95h-121l-25 101c-13 50-57 86-107 86h-70v-42h70c31 0 59-21 67-53l111-435c-22-17-38-44-38-75 0-50 42-92 92-92h568v42h-568c-27 0-50 22-50 50 0 28 23 51 50 51l0 0z m452 483l37-113h-164l-22 64 149 49z m-263 0l38-113h-164l-23 64 149 49z m442-156l-80-285h-567l-73 285h720l0 0z m-248-533c-48 0-88-40-88-89s40-88 88-88c50 0 88 40 88 88 0 49-39 89-88 89z m0-137c-27 0-48 23-48 48 0 28 22 49 48 49 28 0 49-21 49-49 0-27-24-48-49-48z m-324 137c-48 0-88-40-88-89s40-88 88-88 88 40 88 88c0 49-40 89-88 89z m0-137c-27 0-48 23-48 48 0 28 22 49 48 49s48-21 48-49c0-27-22-48-48-48z" horiz-adv-x="1000" />

<glyph glyph-name="check-mark" unicode="&#xe817;" d="M32 306c-8 8-11 19-11 27s4 19 11 26l52 52c15 15 38 15 53 0l4-4 205-220c8-8 19-8 26 0l500 519h4c15 14 37 14 52 0l53-53c14-15 14-37 0-52l-598-620c-8-8-15-11-27-11-11 0-18 4-25 11l-291 314-8 11z" horiz-adv-x="1000" />

<glyph glyph-name="nation_wide_delivery" unicode="&#xe818;" d="M237 830c-10-7-12-14-12-31l0-14-9-7c-32-23-41-50-27-80 12-23 52-59 79-70 7-2 12-8 12-13 0 0-5-1-12-1-16 0-28-6-41-21-5-6-19-21-31-32-26-27-33-36-34-50-2-23 6-30 69-59 4-2 11-7 14-11 7-6 7-7 6-16 0-6-4-17-11-31-10-21-10-22-10-38 0-15 1-17 7-28 21-38 29-71 37-158 7-61 13-94 21-111 15-33 38-42 70-27 17 8 34 19 47 31 5 5 11 8 13 8s5-6 8-15c7-15 13-20 24-20 13 0 29 13 37 30 2 4 4 7 5 7s7-1 13-3c15-4 28-2 37 3 14 9 24 34 27 62l1 16 9 3c49 11 92-15 99-59 2-8 1-17-1-32-6-44-1-71 25-132 9-21 18-44 20-53 4-14 5-14 9-13 10 2 20 9 23 16 5 9 4 23 0 43-6 22-6 22 4 20 5 0 19-5 30-9s22-9 23-9 1 10 0 21c0 12-2 58-3 103-1 46-3 92-4 108-3 26-10 70-14 83-1 4-3 19-3 35-2 35-5 45-15 56-8 10-20 15-35 15-25-1-40-16-53-56-2-7-7-18-10-25-3-6-5-12-5-14 0-5-3-4-10 4-11 12-24 33-29 47-15 42 5 70 63 91 20 7 27 10 40 20 21 15 40 44 47 69l3 11 13 4c17 4 25 10 28 20 2 6 1 8-2 14-2 4-7 10-11 13-25 18-32 24-40 27-13 7-36 10-95 12-67 2-152 8-176 12-19 4-35 10-40 18-7 10-8 17-10 62-1 46-2 50-9 64-7 14-11 18-18 22-11 5-18 3-33-12-10-8-15-12-18-11-5 1-14 15-21 35-6 19-12 28-20 29-9 3-16 0-26-10l-9-10-10 16c-12 18-23 28-38 32-12 5-11 5-18-1z m23-35c3-3 10-12 15-20 5-7 11-15 15-17 12-7 27-4 35 7l4 6 5-11c9-24 20-41 31-47 3-1 10-2 15-2 11 0 22 5 33 16 3 4 6 6 6 6s3-3 5-7c3-6 4-13 5-50 2-57 6-72 23-88 20-17 41-21 127-27 62-5 71-5 122-7 33-1 50-2 57-4 9-3 36-21 35-24-1 0-4-2-9-3-10-3-19-13-22-24-3-14-7-23-14-35-14-21-30-33-58-43-40-14-63-31-76-54-19-37-10-80 28-127 19-24 32-30 45-22 6 4 10 10 16 27 16 45 25 67 32 71 6 4 18 3 24-2 5-5 7-19 7-43 0-17 1-27 6-47 11-50 14-88 16-187l1-69-9 3c-22 7-41 3-48-10l-3-7-6 15c-11 29-12 36-12 62 0 14 1 34 1 45 2 17 1 23-1 33-10 37-36 63-74 73-21 5-56 3-72-5-13-7-18-14-17-32 0-22-7-44-15-47-3-1-9-1-19 2-23 6-33 1-43-18-2-4-6-9-8-11-4-3-4-3-8 6-10 22-26 30-43 21-3-2-13-9-22-16-17-15-41-28-51-28-19 0-29 32-37 121-8 80-17 120-36 157-11 23-11 27 1 52 5 11 10 25 11 30 5 21-1 38-17 52-7 6-13 9-47 25-9 4-18 10-21 12-7 5-6 7 24 38 13 14 28 29 33 34 9 11 14 12 27 9 25-6 40 13 30 40-7 18-11 23-29 32-30 15-55 37-64 55-8 18-3 27 26 49 9 7 14 20 13 32 0 5 0 9 1 9 0 0 3-3 6-6z" horiz-adv-x="1000" />

<glyph glyph-name="cancel" unicode="&#xe819;" d="M452 194q18-18 18-43t-18-43q-18-16-43-16t-43 16l-132 152-132-152q-18-16-43-16t-43 16q-16 18-16 43t16 43l138 156-138 158q-16 18-16 43t16 43q18 16 43 16t43-16l132-152 132 152q18 16 43 16t43-16q18-18 18-43t-18-43l-138-158z" horiz-adv-x="470" />

<glyph glyph-name="one_click_checkout" unicode="&#xe81a;" d="M415 837c-72-7-146-33-206-73-27-18-37-26-61-50-70-67-112-150-129-249-5-30-5-99 0-130 16-93 55-173 120-239 71-74 168-121 272-131 28-3 40-3 41 0 0 1 1 11 1 21l-1 19-25 1c-96 5-195 52-261 121-55 59-90 127-104 208-6 30-7 98-1 128 14 83 49 154 104 211 141 147 367 165 528 42 86-65 143-166 154-275 1-10 2-24 2-30v-12h21 20v10c0 5-1 19-2 32-7 80-38 158-86 222-83 111-216 177-353 175-14-1-29-1-34-1z m6-227c-46-7-87-29-119-62-19-20-28-33-39-57-16-33-23-69-20-109 7-84 68-158 151-182 38-11 79-11 118 0 10 3 19 5 19 5 1-1 32-80 70-175 38-96 70-173 71-172 1 1 21 46 45 101s44 100 45 101c1 1 27-24 58-56l57-57 8 7c4 4 10 11 13 15l6 8-56 57c-32 31-57 57-56 58 0 0 46 20 101 44 55 24 101 44 102 45 1 1-77 33-172 71s-174 70-175 70c0 0 2 6 4 13 14 42 13 95-1 136-24 67-79 117-148 135-19 5-62 7-82 4z m61-34c72-12 128-67 144-138 5-22 4-57-2-81-3-10-6-20-7-21-1 0-36 13-79 30-42 17-79 32-81 32-2 1 5-18 29-80 18-44 32-81 32-81 0-1-20-7-34-10-99-19-196 53-208 155-9 81 41 161 120 188 24 8 61 11 86 6z" horiz-adv-x="1000" />

<glyph glyph-name="star" unicode="&#xe81b;" d="M721 87c-22 0-39-17-39-39v-102c0-10-9-18-19-18h-468c-11 0-19 9-19 18v808c0 10 8 18 19 18h468c10 0 19-9 19-18v-102c0-21 17-39 39-39s39 18 39 39v102c0 53-44 96-97 96h-468c-54 0-97-43-97-96v-807c0-53 43-96 97-96h468c53 0 97 43 97 96v101c0 22-17 39-39 39z m185 302l-203 198c-15 15-39 14-54-1-15-15-14-39 1-54l136-133h-365c-21 0-38-17-38-38s17-38 38-38h365l-136-133c-15-15-16-39-1-54s39-16 54-1l203 199c16 15 16 40 0 55z" horiz-adv-x="1000" />

<glyph glyph-name="star-1" unicode="&#xe81c;" d="M490 801c-4-3-102-195-145-283 0-1-300-46-308-46-6 0-14-10-14-19 0-8 18-26 113-119 87-84 113-112 113-117-1-4-13-74-27-155-24-138-25-150-20-157 3-5 8-7 13-7 4 0 69 32 145 72 76 40 138 72 139 72 1 0 64-32 139-72 76-40 141-72 144-72 11 0 18 6 18 17 0 5-11 77-26 159l-25 149 34 34c19 19 70 69 114 111 52 51 80 80 80 84 0 4-3 9-6 13-5 6-24 9-153 28-81 11-152 22-156 23-8 1-17 17-79 142-56 114-71 142-77 145-10 3-8 4-16-2z m141-318c3-1 67-11 143-22 76-11 139-21 139-21 1-1-45-46-101-101-82-80-102-101-102-107 0-5 11-70 24-144 13-75 23-136 22-136s-56 29-122 63c-66 35-125 65-129 67-8 2-25-6-135-64-69-36-126-66-127-65-1 0 10 64 23 140 14 83 23 142 22 145-2 3-48 49-103 103-81 78-100 98-95 100 3 1 63 10 132 20 70 9 132 19 139 21 11 3 12 4 75 132l64 129 63-129c35-71 65-130 68-131z" horiz-adv-x="1000" />

<glyph glyph-name="up-arrow-full" unicode="&#xe81d;" d="M483 743c-3-4-114-162-245-353-257-373-249-360-232-377 7-6 11-6 494-6s486 0 493 6c17 17 25 5-232 377-131 191-242 349-245 353-4 3-11 5-16 5-5 0-13-2-17-5z" horiz-adv-x="1000" />

<glyph glyph-name="up-arrow" unicode="&#xe81e;" d="M241 375l-241-240v-17c0-13 2-17 10-26 8-7 12-9 26-9h16l224 222 224 222 223-222 222-222h18c15 0 19 1 27 10 8 8 10 12 10 26v16l-241 241-241 240h-18-18l-241-241z" horiz-adv-x="1000" />

<glyph glyph-name="add" unicode="&#xe81f;" d="M50 311c-19 0-34 16-34 35s15 35 34 35h419v418c0 20 15 35 35 35s34-15 34-35v-418h419c20 0 35-15 35-35s-15-35-35-35h-419v-419c0-19-15-35-34-35-20 0-35 16-35 35v419h-419z" horiz-adv-x="1000" />

<glyph glyph-name="my-wish-list" unicode="&#xe820;" d="M491 26h-457v648h622v-334c0-9 7-17 16-17s17 8 17 17v351c0 9-7 17-17 17h-655c-9 0-17-8-17-17v-682c0-9 8-17 17-17h474c10 0 17 8 17 17 0 9-7 17-17 17z m-192 565c-6 6-17 6-23 0l-73-73-37 37c-6 7-17 7-23 0s-7-17 0-23l48-49c4-3 8-5 12-5s9 1 12 5l84 84c7 7 7 17 0 24z m243-55h-218c-9 0-16-8-16-17s7-17 16-17h218c9 0 16 8 16 17 0 9-7 17-16 17z m-243-112c-6 6-17 6-23 0l-73-73-37 37c-6 7-17 7-23 0s-7-17 0-23l48-49c4-3 8-5 12-5s9 2 12 5l84 84c7 7 7 17 0 24z m243-55h-218c-9 0-16-8-16-17s7-17 16-17h218c9 0 16 8 16 17 0 9-7 17-16 17z m-266-112l-73-73-37 37c-6 7-17 7-23 0s-7-17 0-23l48-49c4-3 8-5 12-5 5 0 9 1 12 5l84 84c7 7 7 17 0 24s-17 6-23 0z m266-55h-218c-9 0-16-8-16-17s7-17 16-17h218c9 0 16 8 16 17 0 9-7 17-16 17z m125-176l-48 43c0 0-1 1-1 1v76l122-120-73 0 0 0z m202 302c-1 1-1 3-2 4-1 1-3 2-5 3l-41 39 28 29 151-151-25-25-106 101z" horiz-adv-x="1000" />

<glyph glyph-name="icon_faq" unicode="&#xe821;" d="M848 698c-93 93-217 144-350 144-132 0-255-51-348-144-192-192-192-506 0-698 93-93 217-145 349-145 132 0 257 51 349 145s144 217 144 349c0 132-51 256-144 349l0 0z m-28-671c-86-86-200-133-322-133s-235 47-321 133c-177 178-177 466 0 643 86 86 200 133 322 133s235-47 321-133c86-86 133-200 133-322 0-121-47-235-133-321l0 0z m-358 192c0 33 3 59 9 76 7 18 22 39 44 63 8 10 18 20 26 30 13 15 22 29 28 43 6 14 9 29 9 48 0 21-5 41-15 58-11 17-29 26-54 26-35-1-57-13-68-35-6-10-10-22-12-35-3-14-4-27-4-42h-57c-2 43 8 80 29 111 20 32 55 48 104 49 42 0 75-12 99-34 25-22 38-54 38-93 0-21-4-40-8-56-6-16-14-30-25-44-10-12-21-25-34-39-12-13-26-29-38-45-5-7-9-15-11-23-3-19-5-39-3-58l-57 0 0 0z m0-117v68h59v-67h-59z" horiz-adv-x="1000" />

<glyph glyph-name="minus" unicode="&#xe822;" d="M39 313c-19 0-36 16-36 35 0 20 16 36 36 36h929c20 0 36-16 36-36 0-19-16-35-36-35h-929z" horiz-adv-x="1000" />

<glyph glyph-name="anti-clockwise" unicode="&#xe823;" d="M504 714c-11 0-20-8-20-20v-306c-12-7-21-20-21-34 0-22 18-40 40-40 3 0 6 1 10 2l156-156c4-4 9-6 14-6s10 2 14 6c8 8 8 21 0 28l-156 157c0 3 2 6 2 9 0 15-9 27-20 34v307c1 11-8 19-19 19z m0 120c-180 0-343-99-426-258-4-7-3-16 3-22 4-6 13-9 21-7l164 45c7 2 11 6 14 12 2 5 1 12-2 18l-47 78c76 60 171 95 272 95 243 0 441-198 441-441s-198-441-441-441-440 198-440 441c0 11-8 20-20 20s-20-9-20-20c0-265 216-481 481-481s480 216 480 481-215 480-480 480z m-366-236c18 28 39 53 63 75l30-50-93-25z" horiz-adv-x="1000" />

<glyph glyph-name="trash-empty" unicode="&#xe824;" d="M286 439v-321q0-8-5-13t-13-5h-36q-8 0-13 5t-5 13v321q0 8 5 13t13 5h36q8 0 13-5t5-13z m143 0v-321q0-8-5-13t-13-5h-36q-8 0-13 5t-5 13v321q0 8 5 13t13 5h36q8 0 13-5t5-13z m142 0v-321q0-8-5-13t-12-5h-36q-8 0-13 5t-5 13v321q0 8 5 13t13 5h36q7 0 12-5t5-13z m72-404v529h-500v-529q0-12 4-22t8-15 6-5h464q2 0 6 5t8 15 4 22z m-375 601h250l-27 65q-4 5-9 6h-177q-6-1-10-6z m518-18v-36q0-8-5-13t-13-5h-54v-529q0-46-26-80t-63-34h-464q-37 0-63 33t-27 79v531h-53q-8 0-13 5t-5 13v36q0 8 5 13t13 5h172l39 93q9 21 31 35t44 15h178q23 0 44-15t30-35l39-93h173q8 0 13-5t5-13z" horiz-adv-x="785.7" />

<glyph glyph-name="logout" unicode="&#xe826;" d="M502 0l0 100 98 0 0-100q0-40-29-70t-71-30l-400 0q-40 0-70 30t-30 70l0 700q0 42 30 71t70 29l400 0q42 0 71-29t29-71l0-150-98 0 0 150-402 0 0-700 402 0z m398 326l-198-196 0 120-450 0 0 150 450 0 0 120z" horiz-adv-x="900" />

<glyph glyph-name="facebook" unicode="&#xf09a;" d="M535 843v-147h-87q-48 0-65-20t-17-60v-106h164l-22-165h-142v-424h-171v424h-142v165h142v122q0 104 58 161t155 57q82 0 127-7z" horiz-adv-x="571.4" />

<glyph glyph-name="gplus" unicode="&#xf0d5;" d="M802 341q0-117-49-207t-138-142-206-51q-83 0-159 32t-131 87-87 131-32 159 32 159 87 131 131 87 159 32q160 0 274-107l-111-107q-65 63-163 63-69 0-127-34t-92-94-34-130 34-130 92-94 127-34q46 0 85 13t64 32 44 43 27 47 12 41h-232v141h386q7-36 7-68z m484 68v-118h-117v-116h-117v116h-117v118h117v116h117v-116h117z" horiz-adv-x="1285.7" />

<glyph glyph-name="apple" unicode="&#xf179;" d="M777 172q-21-70-68-139-72-110-144-110-27 0-78 18-48 18-84 18-34 0-79-19-45-19-74-19-85 0-168 145-82 146-82 281 0 127 63 208 63 81 159 81 40 0 98-17 58-17 77-17 25 0 80 19 57 19 97 19 66 0 119-36 29-20 58-56-44-37-64-66-36-52-36-115 0-69 38-125t88-70z m-209 655q0-34-17-76-16-42-52-77-30-30-60-40-20-7-58-10 2 83 44 143 41 60 139 83 1-2 2-6t1-6q0-2 0-6t1-5z" horiz-adv-x="785.7" />
</font>
</defs>
</svg>
